name analog
datacolumns 19
datarows 70
range 0.4535 0.488
endheader
time	ground_force_vx	ground_force_vy	ground_force_vz	ground_force_px	ground_force_py	ground_force_pz	l_ground_force_vx	l_ground_force_vy	l_ground_force_vz	l_ground_force_px	l_ground_force_py	l_ground_force_pz	ground_torque_x	ground_torque_y	ground_torque_z	l_ground_torque_x	l_ground_torque_y	l_ground_torque_z
0.4535	-0.0	-0.0	-0.0	-4.409369468688965	-12.478256225585938	-639.3544311523438	-0.0	-0.0	-0.0	-0.0	-0.0	-0.0	-0.0	-0.0	-0.0	-0.0	-0.0	-0.0
0.454	-0.0	-0.0	-0.0	-4.014472961425781	-12.248950958251951	-636.8316650390625	-0.0	-0.0	-0.0	-0.0	-0.0	-0.0	-0.0	-0.0	-0.0	-0.0	-0.0	-0.0
0.4545	-0.0	-0.0	-0.0	-3.925262451171875	-11.30667781829834	-633.7047729492188	-0.0	-0.0	-0.0	-0.0	-0.0	-0.0	-0.0	-0.0	-0.0	-0.0	-0.0	-0.0
0.455	-0.0	-0.0	-0.0	-3.3900153636932373	-10.249979972839355	-632.2930297851562	-0.0	-0.0	-0.0	-0.0	-0.0	-0.0	-0.0	-0.0	-0.0	-0.0	-0.0	-0.0
0.4555	-0.0	-0.0	-0.0	-3.810452938079834	-9.435163497924805	-630.7794189453125	-0.0	-0.0	-0.0	-0.0	-0.0	-0.0	-0.0	-0.0	-0.0	-0.0	-0.0	-0.0
0.456	-0.0	-0.0	-0.0	-3.925262451171875	-7.791989326477051	-629.5184326171875	-0.0	-0.0	-0.0	-0.0	-0.0	-0.0	-0.0	-0.0	-0.0	-0.0	-0.0	-0.0
0.4565	-0.0	-0.0	-0.0	-5.123397350311279	-6.990535259246826	-629.7198486328125	-0.0	-0.0	-0.0	-0.0	-0.0	-0.0	-0.0	-0.0	-0.0	-0.0	-0.0	-0.0
0.457	-0.0	-0.0	-0.0	-6.410820484161377	-6.010139465332031	-630.627197265625	-0.0	-0.0	-0.0	-0.0	-0.0	-0.0	-0.0	-0.0	-0.0	-0.0	-0.0	-0.0
0.4575	-0.0	-0.0	-0.0	-7.455183029174805	-5.477285861968994	-632.0953979492188	-0.0	-0.0	-0.0	-0.0	-0.0	-0.0	-0.0	-0.0	-0.0	-0.0	-0.0	-0.0
0.458	-0.0	-0.0	-0.0	-7.647942543029785	-4.314468383789063	-634.5116577148438	-0.0	-0.0	-0.0	-0.0	-0.0	-0.0	-0.0	-0.0	-0.0	-0.0	-0.0	-0.0
0.4585	-0.0	-0.0	-0.0	-8.716029167175293	-3.743476867675781	-636.0770263671875	-0.0	-0.0	-0.0	-0.0	-0.0	-0.0	-0.0	-0.0	-0.0	-0.0	-0.0	-0.0
0.459	-0.0	-0.0	-0.0	-9.697125434875488	-3.8120176792144775	-639.4680786132812	-0.0	-0.0	-0.0	-0.0	-0.0	-0.0	-0.0	-0.0	-0.0	-0.0	-0.0	-0.0
0.4595	-0.0	-0.0	-0.0	-9.750880241394045	-3.677886486053467	-642.32763671875	-0.0	-0.0	-0.0	-0.0	-0.0	-0.0	-0.0	-0.0	-0.0	-0.0	-0.0	-0.0
0.46	-0.0	-0.0	-0.0	-9.27789306640625	-4.25493860244751	-644.2001953125	-0.0	-0.0	-0.0	-0.0	-0.0	-0.0	-0.0	-0.0	-0.0	-0.0	-0.0	-0.0
0.4605	-0.0	-0.0	-0.0	-8.82031536102295	-4.27825927734375	-646.6099243164062	-0.0	-0.0	-0.0	-0.0	-0.0	-0.0	-0.0	-0.0	-0.0	-0.0	-0.0	-0.0
0.461	-0.0	-0.0	-0.0	-8.630521774291992	-3.97202205657959	-647.36083984375	-0.0	-0.0	-0.0	-0.0	-0.0	-0.0	-0.0	-0.0	-0.0	-0.0	-0.0	-0.0
0.4615	-0.0	-0.0	-0.0	-8.2689847946167	-3.0466694831848145	-646.9359130859375	-0.0	-0.0	-0.0	-0.0	-0.0	-0.0	-0.0	-0.0	-0.0	-0.0	-0.0	-0.0
0.462	-0.0	-0.0	-0.0	-7.90074348449707	-1.972085237503052	-644.5089721679688	-0.0	-0.0	-0.0	-0.0	-0.0	-0.0	-0.0	-0.0	-0.0	-0.0	-0.0	-0.0
0.4625	-0.0	-0.0	-0.0	-7.538143157958984	-0.6461231112480164	-641.1762084960938	-0.0	-0.0	-0.0	-0.0	-0.0	-0.0	-0.0	-0.0	-0.0	-0.0	-0.0	-0.0
0.463	-0.0	-0.0	-0.0	-7.0304484367370605	-0.2893103957176208	-640.3587036132812	-0.0	-0.0	-0.0	-0.0	-0.0	-0.0	-0.0	-0.0	-0.0	-0.0	-0.0	-0.0
0.4635	-0.0	-0.0	-0.0	-5.615848541259766	0.2847482860088348	-637.55859375	-0.0	-0.0	-0.0	-0.0	-0.0	-0.0	-0.0	-0.0	-0.0	-0.0	-0.0	-0.0
0.464	-0.0	-0.0	-0.0	-5.074217319488525	0.8668065667152405	-633.6746826171875	-0.0	-0.0	-0.0	-0.0	-0.0	-0.0	-0.0	-0.0	-0.0	-0.0	-0.0	-0.0
0.4645	-0.0	-0.0	-0.0	-3.935898542404175	1.2584521770477295	-634.029296875	-0.0	-0.0	-0.0	-0.0	-0.0	-0.0	-0.0	-0.0	-0.0	-0.0	-0.0	-0.0
0.465	-0.0	-0.0	-0.0	-2.7972044944763184	1.2583757638931274	-634.8200073242188	-0.0	-0.0	-0.0	-0.0	-0.0	-0.0	-0.0	-0.0	-0.0	-0.0	-0.0	-0.0
0.4655	-0.0	-0.0	-0.0	-1.4169350862503052	1.100835919380188	-637.7696533203125	-0.0	-0.0	-0.0	-0.0	-0.0	-0.0	-0.0	-0.0	-0.0	-0.0	-0.0	-0.0
0.466	-0.0	-0.0	-0.0	-0.585019588470459	0.9889731407165528	-639.1810913085938	-0.0	-0.0	-0.0	-0.0	-0.0	-0.0	-0.0	-0.0	-0.0	-0.0	-0.0	-0.0
0.4665	-0.0	-0.0	-0.0	-0.0892105102539062	0.0380510091781616	-641.9652709960938	-0.0	-0.0	-0.0	-0.0	-0.0	-0.0	-0.0	-0.0	-0.0	-0.0	-0.0	-0.0
0.467	-0.0	-0.0	-0.0	0.4561319351196289	-0.4657926559448242	-642.2407836914062	-0.0	-0.0	-0.0	-0.0	-0.0	-0.0	-0.0	-0.0	-0.0	-0.0	-0.0	-0.0
0.4675	-0.0	-0.0	-0.0	0.961717963218689	-0.6534869074821472	-645.3786010742188	-0.0	-0.0	-0.0	-0.0	-0.0	-0.0	-0.0	-0.0	-0.0	-0.0	-0.0	-0.0
0.468	-0.0	-0.0	-0.0	1.5463439226150513	-0.3961445689201355	-647.5354614257812	-0.0	-0.0	-0.0	-0.0	-0.0	-0.0	-0.0	-0.0	-0.0	-0.0	-0.0	-0.0
0.4685	-0.0	-0.0	-0.0	1.9723788499832156	-0.9115219116210938	-647.3016357421875	-0.0	-0.0	-0.0	-0.0	-0.0	-0.0	-0.0	-0.0	-0.0	-0.0	-0.0	-0.0
0.46900000000000003	-0.0	-0.0	-0.0	1.734769344329834	-0.791427493095398	-647.6128540039062	-0.0	-0.0	-0.0	-0.0	-0.0	-0.0	-0.0	-0.0	-0.0	-0.0	-0.0	-0.0
0.46950000000000003	-0.0	-0.0	-0.0	1.4672006368637085	-0.2769280970096588	-648.0095825195312	-0.0	-0.0	-0.0	-0.0	-0.0	-0.0	-0.0	-0.0	-0.0	-0.0	-0.0	-0.0
0.47000000000000003	-0.0	-0.0	-0.0	1.4179524183273315	0.2158901393413543	-648.085205078125	-0.0	-0.0	-0.0	-0.0	-0.0	-0.0	-0.0	-0.0	-0.0	-0.0	-0.0	-0.0
0.47050000000000003	-0.0	-0.0	-0.0	1.8428245782852173	0.2673912048339844	-649.2658081054688	-0.0	-0.0	-0.0	-0.0	-0.0	-0.0	-0.0	-0.0	-0.0	-0.0	-0.0	-0.0
0.47100000000000003	-0.0	-0.0	-0.0	1.7966375350952148	-0.3165491223335266	-646.12451171875	-0.0	-0.0	-0.0	-0.0	-0.0	-0.0	-0.0	-0.0	-0.0	-0.0	-0.0	-0.0
0.47150000000000003	-0.0	-0.0	-0.0	2.155709743499756	-0.4547611773014068	-643.5802001953125	-0.0	-0.0	-0.0	-0.0	-0.0	-0.0	-0.0	-0.0	-0.0	-0.0	-0.0	-0.0
0.47200000000000003	-0.0	-0.0	-0.0	2.7565181255340576	0.0179991722106933	-639.4857177734375	-0.0	-0.0	-0.0	-0.0	-0.0	-0.0	-0.0	-0.0	-0.0	-0.0	-0.0	-0.0
0.47250000000000003	-0.0	-0.0	-0.0	3.2606146335601807	0.1605527698993683	-636.4302978515625	-0.0	-0.0	-0.0	-0.0	-0.0	-0.0	-0.0	-0.0	-0.0	-0.0	-0.0	-0.0
0.47300000000000003	-0.0	-0.0	-0.0	4.032043933868408	0.4456520080566406	-635.8135375976562	-0.0	-0.0	-0.0	-0.0	-0.0	-0.0	-0.0	-0.0	-0.0	-0.0	-0.0	-0.0
0.47350000000000003	-0.0	-0.0	-0.0	4.687890529632568	0.2271610796451568	-632.1233520507812	-0.0	-0.0	-0.0	-0.0	-0.0	-0.0	-0.0	-0.0	-0.0	-0.0	-0.0	-0.0
0.47400000000000003	-0.0	-0.0	-0.0	5.044675827026367	0.0805745273828506	-628.7281494140625	-0.0	-0.0	-0.0	-0.0	-0.0	-0.0	-0.0	-0.0	-0.0	-0.0	-0.0	-0.0
0.47450000000000003	-0.0	-0.0	-0.0	5.854084014892578	0.5347824096679688	-625.9277954101562	-0.0	-0.0	-0.0	-0.0	-0.0	-0.0	-0.0	-0.0	-0.0	-0.0	-0.0	-0.0
0.47500000000000003	-0.0	-0.0	-0.0	6.171056747436523	1.005332350730896	-620.9846801757812	-0.0	-0.0	-0.0	-0.0	-0.0	-0.0	-0.0	-0.0	-0.0	-0.0	-0.0	-0.0
0.47550000000000003	-0.0	-0.0	-0.0	7.339942455291748	0.8508485555648804	-620.3768310546875	-0.0	-0.0	-0.0	-0.0	-0.0	-0.0	-0.0	-0.0	-0.0	-0.0	-0.0	-0.0
0.47600000000000003	-0.0	-0.0	-0.0	8.466851234436035	1.1749742031097412	-618.9962768554688	-0.0	-0.0	-0.0	-0.0	-0.0	-0.0	-0.0	-0.0	-0.0	-0.0	-0.0	-0.0
0.47650000000000003	-0.0	-0.0	-0.0	9.569527626037598	0.6644810438156128	-619.6700439453125	-0.0	-0.0	-0.0	-0.0	-0.0	-0.0	-0.0	-0.0	-0.0	-0.0	-0.0	-0.0
0.47700000000000004	-0.0	-0.0	-0.0	10.315648078918455	0.1127777695655822	-617.58203125	-0.0	-0.0	-0.0	-0.0	-0.0	-0.0	-0.0	-0.0	-0.0	-0.0	-0.0	-0.0
0.47750000000000004	-0.0	-0.0	-0.0	10.29992389678955	0.4863309264183044	-618.6100463867188	-0.0	-0.0	-0.0	-0.0	-0.0	-0.0	-0.0	-0.0	-0.0	-0.0	-0.0	-0.0
0.47800000000000004	-0.0	-0.0	-0.0	10.965229034423828	0.397258311510086	-618.186279296875	-0.0	-0.0	-0.0	-0.0	-0.0	-0.0	-0.0	-0.0	-0.0	-0.0	-0.0	-0.0
0.47850000000000004	-0.0	-0.0	-0.0	11.485498428344728	0.9019142985343932	-616.9035034179688	-0.0	-0.0	-0.0	-0.0	-0.0	-0.0	-0.0	-0.0	-0.0	-0.0	-0.0	-0.0
0.47900000000000004	-0.0	-0.0	-0.0	11.995110511779783	1.4186863899230957	-617.7703857421875	-0.0	-0.0	-0.0	-0.0	-0.0	-0.0	-0.0	-0.0	-0.0	-0.0	-0.0	-0.0
0.47950000000000004	-0.0	-0.0	-0.0	12.537739753723145	0.9804344177246094	-618.1979370117188	-0.0	-0.0	-0.0	-0.0	-0.0	-0.0	-0.0	-0.0	-0.0	-0.0	-0.0	-0.0
0.48	-0.0	-0.0	-0.0	12.805331230163574	0.9731940031051636	-616.7095336914062	-0.0	-0.0	-0.0	-0.0	-0.0	-0.0	-0.0	-0.0	-0.0	-0.0	-0.0	-0.0
0.4805	-0.0	-0.0	-0.0	12.85341453552246	0.6310076713562012	-615.048828125	-0.0	-0.0	-0.0	-0.0	-0.0	-0.0	-0.0	-0.0	-0.0	-0.0	-0.0	-0.0
0.481	-0.0	-0.0	-0.0	13.381576538085938	0.4867256581783294	-612.9022827148438	-0.0	-0.0	-0.0	-0.0	-0.0	-0.0	-0.0	-0.0	-0.0	-0.0	-0.0	-0.0
0.4815	-0.0	-0.0	-0.0	13.53936004638672	0.4319062232971191	-610.6209106445312	-0.0	-0.0	-0.0	-0.0	-0.0	-0.0	-0.0	-0.0	-0.0	-0.0	-0.0	-0.0
0.482	-0.0	-0.0	-0.0	12.633432388305664	0.5206265449523926	-607.686279296875	-0.0	-0.0	-0.0	-0.0	-0.0	-0.0	-0.0	-0.0	-0.0	-0.0	-0.0	-0.0
0.4825	-0.0	-0.0	-0.0	11.96751308441162	1.336956024169922	-607.2797241210938	-0.0	-0.0	-0.0	-0.0	-0.0	-0.0	-0.0	-0.0	-0.0	-0.0	-0.0	-0.0
0.483	-0.0	-0.0	-0.0	10.972892761230469	1.5022153854370115	-607.0390625	-0.0	-0.0	-0.0	-0.0	-0.0	-0.0	-0.0	-0.0	-0.0	-0.0	-0.0	-0.0
0.4835	-0.0	-0.0	-0.0	10.074360847473145	0.8720402121543884	-607.3931274414062	-0.0	-0.0	-0.0	-0.0	-0.0	-0.0	-0.0	-0.0	-0.0	-0.0	-0.0	-0.0
0.484	-0.0	-0.0	-0.0	9.586956024169922	0.6526238322257996	-608.1506958007812	-0.0	-0.0	-0.0	-0.0	-0.0	-0.0	-0.0	-0.0	-0.0	-0.0	-0.0	-0.0
0.4845	-0.0	-0.0	-0.0	7.9812397956848145	0.3979887366294861	-606.9520263671875	-0.0	-0.0	-0.0	-0.0	-0.0	-0.0	-0.0	-0.0	-0.0	-0.0	-0.0	-0.0
0.485	-0.0	-0.0	-0.0	6.904679775238037	-0.4810905754566192	-611.3544921875	-0.0	-0.0	-0.0	-0.0	-0.0	-0.0	-0.0	-0.0	-0.0	-0.0	-0.0	-0.0
0.4855	-0.0	-0.0	-0.0	5.61428165435791	-1.1410191059112549	-614.8389282226562	-0.0	-0.0	-0.0	-0.0	-0.0	-0.0	-0.0	-0.0	-0.0	-0.0	-0.0	-0.0
0.486	-0.0	-0.0	-0.0	4.650680541992188	-1.8359657526016235	-619.1708984375	-0.0	-0.0	-0.0	-0.0	-0.0	-0.0	-0.0	-0.0	-0.0	-0.0	-0.0	-0.0
0.4865	-0.0	-0.0	-0.0	3.9008049964904794	-2.40652084350586	-623.0093994140625	-0.0	-0.0	-0.0	-0.0	-0.0	-0.0	-0.0	-0.0	-0.0	-0.0	-0.0	-0.0
0.487	-0.0	-0.0	-0.0	3.7830305099487305	-2.6265439987182617	-628.2626342773438	-0.0	-0.0	-0.0	-0.0	-0.0	-0.0	-0.0	-0.0	-0.0	-0.0	-0.0	-0.0
0.4875	-0.0	-0.0	-0.0	3.872356653213501	-2.6486973762512207	-631.0326538085938	-0.0	-0.0	-0.0	-0.0	-0.0	-0.0	-0.0	-0.0	-0.0	-0.0	-0.0	-0.0
0.488	-0.0	-0.0	-0.0	3.9198386669158936	-2.239098072052002	-633.3374633789062	-0.0	-0.0	-0.0	-0.0	-0.0	-0.0	-0.0	-0.0	-0.0	-0.0	-0.0	-0.0
